# xmcd
#
# Track frame offsets:
#	150
#	13054
#	24208
#	36622
#	47055
#	63996
#	77119
#	86863
#	97398
#	111710
#	124513
#	137702
#
# Disc length: 2025 seconds
#
# Revision: 1
# Processed by: cddbd v1.5.1PL2 Copyright (c) Steve Scherf et al.
# Submitted via: audiograbber 1.83.01
#
DISCID=ab07e70c
DTITLE=Almwind - Frei wie ein Adler
DYEAR=1900
DGENRE=
TTITLE0=Servus, griaﬂ euch
TTITLE1=Vilser Ziehharmonika-Gruﬂ
TTITLE2=Tirol, mein Land
TTITLE3=Ja so geht¥s zu
TTITLE4=Frei wie ein Adler
TTITLE5=A kloans Edelweiﬂ
TTITLE6=Knopfer Boarischer
TTITLE7=Ja dann mach i a Musig
TTITLE8=Oh Natalie
TTITLE9=Zeltfeststampfer
TTITLE10=Auf der Strasse zum Gl¸ck
TTITLE11=Apre`s Ski und Nightlife
EXTD=
EXTT0=
EXTT1=
EXTT2=
EXTT3=
EXTT4=
EXTT5=
EXTT6=
EXTT7=
EXTT8=
EXTT9=
EXTT10=
EXTT11=
PLAYORDER=
